<svg width="457" height="59" viewBox="0 0 457 59" fill="none" xmlns="http://www.w3.org/2000/svg">
<path d="M455.074 37.5668H452.267C451.183 37.5668 450.671 37.1828 450.671 36.0991V14.5429C450.671 10.78 449.269 9.50293 446.208 9.50293H427.058C425.847 9.50293 425.019 10.5866 425.019 11.7356V16.3916C425.023 16.9316 425.239 17.4484 425.62 17.8305C426.002 18.2126 426.518 18.4293 427.058 18.4338H439.999C440.89 18.4338 441.274 18.8149 441.274 19.5714V22.5778C441.274 23.8548 440.381 23.8548 439.615 23.8548H426.987C425.849 23.8548 424.996 24.5545 424.996 25.9595V28.3828C424.996 29.401 424.55 29.8476 423.594 29.8476H420.465C418.807 29.8476 417.977 30.9341 417.977 32.3363V36.9268C417.977 37.5866 418.24 38.2192 418.706 38.6857C419.173 39.1523 419.806 39.4147 420.465 39.4155H423.716C424.547 39.4155 424.737 39.862 424.737 40.5532V44.4412C424.737 46.2274 425.758 46.4834 426.97 46.4834H433.227C437.755 46.4834 441.262 43.423 442.027 38.639C442.218 38.639 443.304 46.2928 452.807 46.4834C456.376 46.5459 456.76 46.0368 456.76 45.0812V39.3529C456.78 37.9479 456.211 37.5668 455.074 37.5668ZM441.296 35.5246C441.296 37.2482 440.159 37.5668 438.617 37.5668H428.222C428.116 37.5746 428.01 37.5606 427.91 37.5257C427.811 37.4909 427.719 37.4358 427.641 37.3641C427.564 37.2923 427.502 37.2054 427.459 37.1086C427.417 37.0119 427.394 36.9074 427.394 36.8017V33.2919C427.394 32.3363 427.775 31.9523 428.605 31.9523H434.408C438.105 31.9523 440.722 30.041 441.296 26.7872V35.5246Z" fill="black"/>
<path d="M42.5409 23.5334H48.1525C49.5547 23.5334 49.8107 22.2592 49.8107 21.1756V11.9262C49.8107 10.396 49.0456 9.50293 47.578 9.50293H42.6632C41.2581 9.50293 40.4305 10.396 40.4305 11.9262V21.4287C40.4361 22.4498 40.6893 23.5334 42.5409 23.5334Z" fill="black"/>
<path d="M132.66 25.3846H127.748C127.179 25.3192 126.346 25.0006 126.346 23.917V14.7899C126.346 11.6613 124.941 9.49682 121.243 9.49682H110.847C109.252 9.49682 108.677 8.73173 108.677 7.01098V2.67925C108.677 0.70252 107.722 0 106.319 0H101.089C99.6868 0 98.7283 0.509114 98.7283 2.48868V7.46321C98.7283 10.1396 100.961 9.94905 101.726 9.94905H105.68C108.106 9.94905 108.424 10.9701 108.424 12.8189V16.0072C108.408 16.5569 108.608 17.091 108.979 17.4962C109.351 17.9014 109.866 18.1458 110.415 18.1773H115.708C116.536 18.1773 116.982 18.5585 116.982 19.315V23.3424C116.982 25.066 117.429 25.9022 119.153 25.9022H123.618C125.02 25.9022 125.657 26.0928 125.657 27.751V31.8978C125.657 33.7466 125.148 33.812 123.553 33.812H118.626C117.608 33.812 116.968 34.4491 116.968 35.5981V37.5094C116.968 38.4025 116.459 38.6471 115.631 38.6471H108.677V20.6632C108.677 19.5795 108.424 18.5585 106.686 18.5585H100.628C98.6372 18.5585 98.9046 15.8821 98.9046 15.8821V12.8189C98.9046 11.1123 98.2675 9.50251 95.3977 9.50251H86.228C82.3371 9.50251 80.9974 11.8632 80.9974 14.989V41.3292C80.9974 45.0921 82.6556 46.4943 86.1 46.4943H98.7283V55.6783C98.7283 57.2739 99.1122 58.4201 101.288 58.4201H106.263C108.305 58.4201 108.686 57.2824 108.686 55.6783V46.4943H121.448C124.127 46.4943 126.36 45.0921 126.36 41.9663V36.0361C126.36 34.8985 126.232 34.5685 127.953 34.5685H132.674C132.922 34.5746 133.168 34.5313 133.399 34.4411C133.629 34.3509 133.84 34.2157 134.018 34.0434C134.196 33.871 134.337 33.665 134.435 33.4372C134.532 33.2095 134.583 32.9647 134.585 32.717V27.3044C134.571 26.2777 134.318 25.3846 132.66 25.3846ZM91.7031 38.65C90.81 38.65 90.3634 38.2707 90.3634 37.5123V19.3236C90.3634 18.5651 90.81 18.1859 91.7031 18.1859H96.4216C97.8892 18.1859 98.7169 18.567 98.6543 21.3742L98.7169 38.6585L91.7031 38.65Z" fill="black"/>
<path d="M31.6987 9.49974H27.1707C25.6377 9.49974 24.81 10.4582 24.81 12.0595V16.013C24.81 17.29 24.1075 18.0039 22.7053 18.0039H18.5585C18.2498 17.9994 17.9433 18.0566 17.6571 18.1724C17.3709 18.2882 17.1108 18.4601 16.8921 18.678C16.6734 18.8959 16.5006 19.1554 16.3838 19.4411C16.2669 19.7269 16.2085 20.0332 16.212 20.3419V23.2771C16.212 24.6167 15.3815 25.268 14.0419 25.268H11.3512C9.75849 25.268 9.37452 24.375 9.37452 23.2771V12.051C9.37452 10.4582 8.67484 9.49121 7.01667 9.49121H2.29528C0.765093 9.49121 0 10.4497 0 12.051V44.2588C0 46.173 1.02107 46.301 2.29528 46.4916H7.33522C8.67484 46.4916 9.37452 45.7265 9.37452 44.2588V36.4031C9.37452 35.0635 10.077 34.4264 11.3512 34.4264H15.4981C17.0283 34.4264 17.8588 33.4053 17.8588 32.0657V29.2073C17.8588 27.9331 18.4959 27.2163 19.8355 27.2163H22.3214C23.7264 27.2163 24.5541 26.3232 24.81 25.1742V44.3726C24.81 46.2214 25.7657 46.4773 27.0428 46.4773H31.8779C33.2801 46.4773 34.0452 45.9085 34.0452 44.3726V12.051C34.0566 10.4582 33.2915 9.49974 31.6987 9.49974Z" fill="black"/>
<path d="M72.26 9.50293H67.6695C66.1393 9.50293 65.2462 10.4614 65.2462 12.0627V17.4753C65.2462 21.0476 64.4157 23.2803 60.2717 23.2803H51.739C50.1434 23.2803 49.8249 23.98 49.8249 25.6381V29.785C49.8249 31.4915 48.8692 32.3448 47.4642 32.3448H43.1979C40.6381 32.3448 40.456 33.6844 40.456 35.4052V44.2706C40.456 45.7382 41.3491 46.5033 42.8139 46.5033H47.4699C48.9375 46.5033 49.8306 45.8007 49.8306 44.2706V35.0781C49.8306 33.4199 50.6611 32.4642 52.4444 32.4642H59.9702C65.0727 32.4642 65.2661 27.1058 65.2661 26.6592V44.262C65.2661 45.6671 66.0938 46.4947 67.6239 46.4947H72.2799C73.8755 46.4947 74.6406 45.6671 74.6406 44.262V12.0542C74.6207 10.4614 73.8556 9.50293 72.26 9.50293Z" fill="black"/>
<path d="M377.95 9.49974H373.294C371.764 9.49974 370.933 10.4582 370.933 12.0595V16.013C370.933 17.29 370.234 18.0039 368.829 18.0039H364.685C364.373 17.9978 364.064 18.0545 363.775 18.1708C363.486 18.287 363.223 18.4604 363.003 18.6806C362.782 18.9007 362.609 19.1631 362.492 19.452C362.375 19.7409 362.318 20.0503 362.324 20.3618V23.2771C362.324 24.6167 361.496 25.268 360.157 25.268H357.734C356.138 25.268 355.501 26.4057 355.501 27.6287V12.051C355.501 10.4582 354.798 9.49121 353.14 9.49121H348.416C346.886 9.49121 346.121 10.4497 346.121 12.051V44.2588C346.121 46.173 347.139 46.301 348.416 46.4916H353.453C354.793 46.4916 355.495 45.7265 355.495 44.2588V36.4031C355.495 35.0635 356.198 34.4264 357.472 34.4264H361.809C363.339 34.4264 363.977 33.4053 363.977 32.0657V29.2073C363.977 27.9331 364.614 27.2931 365.967 27.2931H367.819C369.858 27.2931 370.948 25.9563 370.948 23.9768V44.3868C370.948 46.2356 371.906 46.4916 373.18 46.4916H378.155C379.56 46.4916 380.325 45.9227 380.325 44.3868V12.051C380.311 10.4582 379.546 9.49974 377.95 9.49974Z" fill="black"/>
<path d="M339.044 9.50293H308.688C307.158 9.50293 306.071 10.6406 306.071 12.2447V15.5611C306.071 17.6032 307.209 18.4338 308.688 18.4338H317.616C318.7 18.4338 319.146 19.0709 319.146 20.2171V43.6875C319.146 45.2831 320.105 46.4947 321.706 46.4947H326.171C327.764 46.4947 328.731 45.2831 328.731 43.6875V19.9639C328.731 18.7523 329.24 18.4338 330.133 18.4338H339.061C340.529 18.4338 341.678 17.6658 341.678 15.8171V12.2447C341.661 10.652 340.64 9.50293 339.044 9.50293Z" fill="black"/>
<path d="M308.941 37.5668H304.223C303.267 37.5668 302.516 37.3734 302.516 35.8432V19.1988C302.516 17.7938 302.195 16.6391 300.283 16.6391H295.309C294.416 16.6391 293.713 16.3831 293.713 15.106V11.7356C293.713 10.598 293.332 9.50293 291.608 9.50293H273.69C272.552 9.50293 271.585 9.8869 271.585 11.6731C271.585 15.6265 274.964 18.4338 281.088 18.4338H291.867C292.695 18.4338 293.142 18.8149 293.142 19.5714V22.1853C293.142 23.4595 292.058 23.4595 291.102 23.4595H280.178C274.757 23.4595 271.759 26.0193 271.759 31.9409V36.3437C271.759 38.383 272.842 39.4041 274.438 39.4041H279.157C279.987 39.4041 280.752 39.7881 280.752 40.7437V44.1227C280.752 45.9742 281.89 46.4834 283.113 46.4834H290.892C296.122 46.4834 300.278 43.551 301.734 38.8296L301.671 44.1881C301.671 45.5903 302.308 46.4834 303.713 46.4834H308.941C310.218 46.4834 310.983 45.7183 310.983 44.3161V39.5947C310.983 37.8284 310.09 37.5668 308.941 37.5668ZM293.124 35.8375C293.124 36.796 292.615 37.5611 291.418 37.5611H282.601C281.583 37.5611 281.136 37.1145 281.136 36.156V33.2293C281.136 31.9523 281.964 31.7617 282.843 31.7617H288.073C290.943 31.7617 292.536 30.2941 293.11 28.7639L293.124 35.8375Z" fill="black"/>
<path d="M264.489 18.1754H260.791C259.58 18.1754 259.261 17.4729 259.261 16.3892V11.0905C259.261 10.0694 258.815 9.49486 257.603 9.49486H251.798C250.777 9.49486 250.074 9.87883 250.074 11.0905V17.1486C250.074 18.4257 250.777 19.0628 252.117 19.0628H253.903C254.858 19.0628 255.495 19.5719 254.284 20.6555L246.377 27.5442C246.377 27.5442 237.256 18.1583 233.555 14.4609C230.623 11.5285 228.837 9.48633 227.298 9.48633C226.277 9.48633 225.449 10.1234 225.449 11.9096V44.3251C225.449 45.5367 226.018 46.4924 227.233 46.4924H232.921C234.059 46.4924 234.707 45.5367 234.707 44.3251V29.009L244.662 39.1486C245.555 40.0417 246.32 39.9791 247.151 39.214L257.29 29.7115V44.4417C257.29 45.6562 258.055 46.4838 259.139 46.4838H264.827C265.911 46.4838 266.676 45.6562 266.676 44.4417V20.9798C266.656 19.131 266.275 18.1754 264.489 18.1754Z" fill="black"/>
<path d="M198.287 9.50293H195.289C194.7 9.51387 194.139 9.75261 193.723 10.169C193.306 10.5853 193.067 11.1469 193.057 11.7356V16.0731C193.057 16.7102 192.994 17.6032 191.919 17.6032H187.254C186.424 17.6032 186.043 17.0941 186.043 15.8967V11.4171C186.043 10.2794 185.15 9.50293 184.001 9.50293H179.165C178.028 9.50293 177.123 10.268 177.123 11.4171V17.0287C177.109 17.3007 177.152 17.5726 177.249 17.8268C177.347 18.0811 177.497 18.312 177.69 18.5046C177.882 18.6971 178.113 18.8471 178.367 18.9446C178.622 19.0422 178.893 19.0852 179.165 19.0709H183.056C184.075 19.0709 184.763 19.324 184.763 20.729V55.8693C184.763 57.2743 185.718 58.4291 187.123 58.4291H191.779C193.244 58.4291 194.137 57.3454 194.137 55.8152V42.9878C194.968 44.5806 198.603 47.1973 204.854 47.1973C215.056 47.1973 220.478 39.7341 220.352 29.1479C220.355 20.7916 215.699 9.50293 198.287 9.50293ZM202.368 38.3973C198.478 38.3973 194.14 35.5275 194.14 30.5529V21.1102C194.14 19.324 195.608 18.4338 198.478 18.4338C204.92 18.4338 209.894 22.8963 209.894 29.5944C209.903 35.2686 206.834 38.3973 202.368 38.3973Z" fill="black"/>
<path d="M408.053 32.845C407.098 31.5708 405.692 30.0406 405.692 28.9541C405.692 27.9985 406.46 27.6799 407.288 27.6799H409.583C410.988 27.6799 411.816 27.0428 411.816 24.9381V20.103C411.816 19.0165 412.2 18.4448 413.412 18.4448H416.728C418.386 18.4448 419.288 18.0608 419.288 16.2121V11.6613C419.288 10.1283 418.651 9.49121 416.927 9.49121H412.015C406.787 9.49121 403.087 11.4822 403.087 19.0591V23.7891C403.087 25.3847 402.518 25.6378 401.301 25.6378H399.833C396.966 25.6378 396.23 28.0611 396.071 29.7932V12.3098C396.071 10.5237 395.115 9.50259 393.457 9.50259H389.247C387.589 9.50259 386.687 10.5237 386.687 12.3098V43.7526C386.687 45.2202 387.643 46.4944 389.247 46.4944H393.585C395.18 46.4944 396.071 45.2202 396.071 43.7526V31.1869L406.594 45.0922C407.553 46.3664 408.636 46.4944 409.657 46.4944H415.525C417.311 46.4944 417.758 45.5387 416.481 43.9346L408.053 32.845Z" fill="black"/>
<path d="M156.577 8.86328C145.541 8.86328 136.667 16.3265 136.667 28.0617C136.667 40.2406 145.407 47.1947 156.577 47.1947C167.547 47.1947 176.486 39.9875 176.486 28.0617C176.475 15.496 167.547 8.86328 156.577 8.86328ZM156.577 38.2639C150.772 38.2639 147.137 33.8639 147.137 28.0617C147.137 21.8727 150.772 17.7913 156.577 17.7913C162.382 17.7913 166.014 22.3192 166.014 28.0617C166.014 33.8639 162.379 38.2639 156.577 38.2639Z" fill="black"/>
</svg>
